HIERARCHY
ROOT Hips
{
	OFFSET 0.000000 0.000000 0.000000 
	CHANNELS 6 Xposition Yposition Zposition Zrotation Yrotation Xrotation
	JOINT LeftUpLeg
	{
		OFFSET 1.363060 -1.794630 0.839290 
		CHANNELS 3 Zrotation Yrotation Xrotation
		JOINT LeftLeg
		{
			OFFSET 2.448110 -6.726130 0.000000 
			CHANNELS 3 Zrotation Yrotation Xrotation
			JOINT LeftFoot
			{
				OFFSET 2.562200 -7.039590 0.000000 
				CHANNELS 3 Zrotation Yrotation Xrotation
				JOINT LeftToeBase
				{
					OFFSET 0.157640 -0.433110 2.322550 
					CHANNELS 3 Zrotation Yrotation Xrotation
					End Site
					{
						OFFSET 0.000000 0.000000 0.000000 
					}
				}
			}
		}
	}
	JOINT RightUpLeg
	{
		OFFSET -1.305520 -1.794630 0.839290 
		CHANNELS 3 Zrotation Yrotation Xrotation
		JOINT RightLeg
		{
			OFFSET -2.542530 -6.985550 0.000000 
			CHANNELS 3 Zrotation Yrotation Xrotation
			JOINT RightFoot
			{
				OFFSET -2.568260 -7.056230 0.000000 
				CHANNELS 3 Zrotation Yrotation Xrotation
				JOINT RightToeBase
				{
					OFFSET -0.164730 -0.452590 2.363150 
					CHANNELS 3 Zrotation Yrotation Xrotation
					End Site
					{
						OFFSET 0.000000 0.000000 0.000000 
					}
				}
			}
		}
	}
	JOINT Spine
	{
		OFFSET 0.028270 2.035590 -0.193380 
		CHANNELS 3 Zrotation Yrotation Xrotation
		JOINT Spine1
		{
			OFFSET 0.056720 2.048850 -0.042750 
			CHANNELS 3 Zrotation Yrotation Xrotation
			JOINT Neck1
			{
				OFFSET -0.054170 1.746240 0.172020 
				CHANNELS 3 Zrotation Yrotation Xrotation
				JOINT Head
				{
					OFFSET 0.104070 1.761360 -0.123970 
					CHANNELS 3 Zrotation Yrotation Xrotation
					End Site
					{
						OFFSET 0.000000 0.000000 0.000000 
					}
				}
			}
			JOINT LeftArm
			{
				OFFSET 3.362410 1.200890 -0.311210 
				CHANNELS 3 Zrotation Yrotation Xrotation
				JOINT LeftForeArm
				{
					OFFSET 4.983000 -0.000000 -0.000000 
					CHANNELS 3 Zrotation Yrotation Xrotation
					JOINT LeftHand
					{
						OFFSET 3.483560 -0.000000 -0.000000 
						CHANNELS 3 Zrotation Yrotation Xrotation
						JOINT LeftHandIndex1
						{
							OFFSET 0.715260 -0.000000 -0.000000 
							CHANNELS 3 Zrotation Yrotation Xrotation
							End Site
							{
								OFFSET 0.000000 0.000000 0.000000 
							}
						}
					}
				}
			}
			JOINT RightArm
			{
				OFFSET -3.136600 1.374050 -0.404650 
				CHANNELS 3 Zrotation Yrotation Xrotation
				JOINT RightForeArm
				{
					OFFSET -5.241900 -0.000000 -0.000000 
					CHANNELS 3 Zrotation Yrotation Xrotation
					JOINT RightHand
					{
						OFFSET -3.444170 -0.000000 -0.000000 
						CHANNELS 3 Zrotation Yrotation Xrotation
						JOINT RightHandIndex1
						{
							OFFSET -0.622530 -0.000000 -0.000000 
							CHANNELS 3 Zrotation Yrotation Xrotation
							End Site
							{
								OFFSET 0.000000 0.000000 0.000000 
							}
						}
					}
				}
			}
		}
	}
}
MOTION
Frames: 6
Frame Time: 0.041667
-18.785906 18.318231 -5.083724 -87.362064 89.321142 -67.258558 -28.705731 -1.728408 -38.240657 2.198711 11.972824 31.290095 1.167045 0.221507 16.683422 2.603200 -10.023200 -29.051800 20.304063 12.976193 -34.258157 -12.458776 -20.262010 66.831102 0.186848 -8.702852 15.069742 -0.161800 2.591900 -7.144600 0.595493 -0.180702 1.381042 -4.091577 0.407020 -1.943863 6.271321 0.774612 -11.343319 0.335900 -0.212500 -7.349000 -78.125157 5.885150 24.413826 14.676405 -25.510207 -4.407494 -0.952109 -0.896462 -23.217710 -7.125000 0.000000 0.000000 78.276299 -2.041048 31.199382 -14.640851 25.946382 -4.063181 0.983378 -0.191679 1.709935 7.125000 0.000000 0.000000 
-18.655146 18.329222 -5.084237 -71.156283 89.471883 -51.105002 -28.889390 -1.440074 -37.745609 2.195914 11.951799 31.259645 1.163279 0.143583 16.591265 2.674300 -10.148200 -29.458000 19.810653 13.530765 -35.593886 -12.626406 -20.379536 67.390143 0.336313 -8.708286 13.528966 -0.218800 3.011400 -8.310500 0.585512 -0.191298 1.384676 -4.077230 0.399382 -1.942487 6.245340 0.804823 -11.304059 0.320400 -0.197400 -7.333300 -78.119600 5.856087 24.407813 14.666414 -25.497972 -4.403485 -0.952178 -0.898632 -23.211797 -7.125000 0.000000 0.000000 78.332500 -2.108419 31.166333 -14.567475 25.866055 -4.033021 0.983180 -0.189238 1.720297 7.125000 0.000000 0.000000 
-18.523359 18.340007 -5.084648 -48.596726 89.643637 -28.604894 -29.074294 -1.162245 -37.204596 2.194336 11.916750 31.214688 1.155633 0.074027 16.496479 2.732100 -10.248100 -29.784000 19.299028 14.035416 -36.908642 -12.720816 -20.472705 67.724603 0.483873 -8.841567 12.045303 -0.271900 3.354400 -9.267000 0.581343 -0.232753 1.385727 -4.061816 0.364826 -1.947156 6.215120 0.831829 -11.269904 0.305200 -0.183200 -7.320800 -78.120451 5.846039 24.385065 14.651828 -25.481025 -4.397494 -0.951784 -0.900142 -23.186402 -7.125000 0.000000 0.000000 78.386326 -2.196092 31.141673 -14.485410 25.776590 -3.999930 0.983729 -0.187612 1.736886 7.125000 0.000000 0.000000 
-18.390544 18.349765 -5.084956 -23.356966 89.810600 -3.432040 -29.252216 -0.896869 -36.606436 2.199690 11.862990 31.168635 1.141803 0.018685 16.407238 2.767600 -10.309000 -29.983200 18.781318 14.474824 -38.216270 -12.739087 -20.551095 67.835142 0.623462 -9.043540 10.619366 -0.310300 3.581400 -9.902000 0.583491 -0.299503 1.388105 -4.048446 0.309884 -1.941861 6.183534 0.855273 -11.245618 0.291800 -0.170100 -7.314100 -78.126025 5.842073 24.350507 14.634720 -25.461720 -4.390487 -0.951201 -0.901044 -23.147991 -7.125000 0.000000 0.000000 78.433266 -2.290171 31.122085 -14.396179 25.680365 -3.964242 0.984369 -0.186222 1.768870 7.125000 0.000000 0.000000 
-18.256908 18.358804 -5.085265 -1.927310 89.885667 17.923214 -29.422474 -0.636380 -35.994939 2.205965 11.810361 31.125039 1.124546 -0.002277 16.312173 2.781000 -10.331800 -30.058100 18.271360 14.864164 -39.467910 -12.685867 -20.596036 67.728188 0.753901 -9.279719 9.254300 -0.326500 3.672500 -10.157200 0.581519 -0.348300 1.394534 -4.039628 0.278097 -1.921189 6.153159 0.877327 -11.231485 0.278100 -0.158200 -7.312200 -78.133908 5.835439 24.317268 14.616087 -25.441068 -4.383128 -0.951424 -0.902018 -23.111829 -7.125000 0.000000 0.000000 78.470858 -2.376135 31.103153 -14.296824 25.573841 -3.924971 0.984496 -0.185327 1.826337 7.125000 0.000000 0.000000 
-18.122347 18.366406 -5.085265 14.112335 89.865953 33.884211 -29.597677 -0.364633 -35.412022 2.207316 11.770828 31.080068 1.109124 -0.002742 16.211836 2.786900 -10.341800 -30.090800 17.773140 15.226779 -40.636404 -12.564299 -20.596086 67.417195 0.869799 -9.471618 7.894016 -0.338100 3.736400 -10.336100 0.574029 -0.376246 1.404924 -4.034888 0.270850 -1.883111 6.122877 0.900187 -11.223182 0.261700 -0.146600 -7.311400 -78.142321 5.825128 24.289993 14.598117 -25.421961 -4.376398 -0.952522 -0.903379 -23.088198 -7.125000 0.000000 0.000000 78.498675 -2.451573 31.085625 -14.191099 25.460872 -3.883111 0.983791 -0.184611 1.905794 7.125000 0.000000 0.000000 
